<svg width="52" height="58" viewBox="0 0 52 58" fill="none" xmlns="http://www.w3.org/2000/svg">
<path d="M34.6607 34.0348C36.0767 32.6197 36.0767 30.3239 34.6607 28.9088L34.3571 28.6052C35.3218 27.0746 36.0412 25.3776 36.4546 23.5624H36.875C38.8769 23.5624 40.5 21.9393 40.5 19.9374C40.5 17.9355 38.8769 16.3124 36.875 16.3124H36.4546C36.0414 14.4973 35.3218 12.8002 34.3571 11.2696L34.6607 10.966C36.0767 9.55086 36.0767 7.2551 34.6607 5.83999C33.2447 4.42397 30.9507 4.42397 29.5347 5.83999L29.2311 6.14358C27.701 5.1782 26.0035 4.45909 24.1875 4.04493V3.625C24.1875 1.62309 22.5644 0 20.5625 0C18.5606 0 16.9375 1.62309 16.9375 3.625V4.04493C15.1215 4.45909 13.424 5.1782 11.8939 6.1437L11.5903 5.8401C10.1743 4.42409 7.88032 4.42409 6.46431 5.8401C5.04829 7.25521 5.04829 9.55097 6.46431 10.9661L6.7679 11.2697C5.8032 12.8003 5.08364 14.4974 4.67039 16.3125H4.25C2.24809 16.3125 0.625 17.9356 0.625 19.9375C0.625 21.9394 2.24809 23.5625 4.25 23.5625H4.67039C5.08364 25.3776 5.8032 27.0747 6.7679 28.6053L6.46431 28.9089C5.04829 30.324 5.04829 32.6198 6.46431 34.0349C7.17232 34.7429 8.09986 35.0969 9.0273 35.0969C9.95473 35.0969 10.8823 34.7429 11.5903 34.0349L11.8939 33.7313C13.4241 34.6968 15.1215 35.4159 16.9375 35.8301V36.25C16.9375 38.2519 18.5606 39.875 20.5625 39.875C22.5644 39.875 24.1875 38.2519 24.1875 36.25V35.8301C26.0035 35.4159 27.701 34.6968 29.2311 33.7313L29.5347 34.0349C30.2427 34.7429 31.1703 35.0969 32.0977 35.0969C33.0251 35.0969 33.9527 34.7428 34.6607 34.0348ZM20.5625 29C15.5658 29 11.5 24.9342 11.5 19.9375C11.5 14.9408 15.5658 10.875 20.5625 10.875C25.5592 10.875 29.625 14.9408 29.625 19.9375C29.625 24.9342 25.5592 29 20.5625 29Z" fill="white"/>
<path d="M48.8793 44.6683C48.5696 43.9138 48.1412 43.2297 47.6492 42.593C47.9793 41.0911 47.3403 39.4884 45.9376 38.6785C44.5332 37.8652 42.825 38.1165 41.6896 39.1537C41.2966 39.1015 40.9072 39.0333 40.5001 39.0333C40.0921 39.0333 39.7027 39.1015 39.3088 39.1537C38.1716 38.1165 36.4627 37.8652 35.0626 38.6785C33.6599 39.4883 33.0209 41.0911 33.351 42.593C32.859 43.2297 32.4306 43.9138 32.1209 44.6683C30.6755 45.1448 29.625 46.4909 29.625 48.0958C29.625 49.7008 30.6755 51.0469 32.1207 51.5235C32.4304 52.2779 32.8588 52.962 33.3508 53.5988C33.0207 55.1007 33.6597 56.7034 35.0624 57.5132C35.6323 57.8433 36.2572 58 36.8714 58C37.7688 58 38.6396 57.6544 39.3132 57.0385C39.7052 57.0902 40.0938 57.1584 40.5 57.1584C40.9062 57.1584 41.2948 57.0902 41.6868 57.0385C42.3603 57.6545 43.2312 58 44.1286 58C44.7428 58 45.3677 57.8433 45.9376 57.5132C47.3404 56.7035 47.9793 55.1007 47.6492 53.5988C48.1413 52.962 48.5696 52.2779 48.8793 51.5235C50.3245 51.0469 51.375 49.7008 51.375 48.0958C51.375 46.4909 50.3245 45.1448 48.8793 44.6683ZM40.5 51.7208C38.4981 51.7208 36.875 50.0977 36.875 48.0958C36.875 46.0939 38.4981 44.4708 40.5 44.4708C42.5019 44.4708 44.125 46.0939 44.125 48.0958C44.125 50.0977 42.5019 51.7208 40.5 51.7208Z" fill="white"/>
<path d="M20.5625 25.375C23.5655 25.375 26 22.9405 26 19.9375C26 16.9345 23.5655 14.5 20.5625 14.5C17.5595 14.5 15.125 16.9345 15.125 19.9375C15.125 22.9405 17.5595 25.375 20.5625 25.375Z" fill="white"/>
</svg>
