<svg width="38" height="58" viewBox="0 0 38 58" fill="none" xmlns="http://www.w3.org/2000/svg">
<path d="M36.6709 23.6174C36.0318 22.4652 34.8177 21.75 33.4999 21.75H24.7525L26.2375 3.92607C26.3746 2.27817 25.3799 0.747179 23.8187 0.201958C22.2593 -0.34145 20.5256 0.239114 19.6087 1.61446L1.48379 28.8019C0.742136 29.9143 0.673148 31.3444 1.30412 32.5233C1.9343 33.702 3.16261 34.4375 4.49989 34.4375H13.2729L11.7604 54.097C11.6321 55.7609 12.6569 57.2972 14.2428 57.8185C14.6154 57.9415 14.9977 58 15.3747 58C16.5978 58 17.7722 57.3779 18.4484 56.2964L36.5733 27.2965C37.2727 26.1786 37.309 24.7705 36.6709 23.6174Z" fill="white"/>
</svg>
