<svg width="52" height="52" viewBox="0 0 52 52" fill="none" xmlns="http://www.w3.org/2000/svg">
<path d="M51.6519 12.9201C51.3175 11.3402 49.3683 10.7566 48.2264 11.8985L41.2981 18.8268C40.0289 20.0961 37.971 20.0961 36.7019 18.8268L33.1731 15.2981C31.9039 14.029 31.9039 11.9711 33.1731 10.7018L40.1014 3.77352C41.2433 2.63155 40.6597 0.682369 39.0798 0.348026C36.9563 -0.101286 34.68 -0.134294 32.3277 0.359096C25.8288 1.72227 20.7085 7.10659 19.6988 13.6697C19.5645 14.5439 19.4997 15.4375 19.5 16.25V23.0292L1.96147 40.5678C0.696718 41.8326 0 43.514 0 45.3025C0 47.0902 0.696616 48.7714 1.96147 50.0362C1.97894 50.0545 1.99712 50.0719 2.0154 50.0893C3.26452 51.3132 4.90922 51.9899 6.65924 51.9999C8.47914 52.0103 10.2195 51.2512 11.5064 49.9643L28.9707 32.4999H35.75C36.5624 32.5003 37.4561 32.4355 38.3301 32.3012C44.8933 31.2915 50.2778 26.1712 51.6409 19.6721C52.1343 17.3199 52.1013 15.0436 51.6519 12.9201ZM8.12499 47.125C6.33008 47.125 4.87499 45.6698 4.87499 43.875C4.87499 42.08 6.33008 40.625 8.12499 40.625C9.92 40.625 11.375 42.08 11.375 43.875C11.375 45.6698 9.92 47.125 8.12499 47.125Z" fill="white"/>
</svg>
