<svg width="80" height="52" viewBox="0 0 80 52" fill="none" xmlns="http://www.w3.org/2000/svg">
<path d="M52.3809 17.3333H44.9523V9.90476H49.9047C52.6396 9.90476 54.8571 7.68733 54.8571 4.95238C54.8571 2.21743 52.6396 0 49.9047 0H30.0951C27.3602 0 25.1428 2.21743 25.1428 4.95238C25.1428 7.68733 27.3602 9.90476 30.0951 9.90476H35.0475V17.3333H27.619C24.884 17.3333 22.6666 19.4734 22.6666 22.2083V46.9702C22.6666 49.7052 24.884 52 27.619 52H52.3809C55.1158 52 57.3332 49.7052 57.3332 46.9702V22.2083C57.3332 19.4734 55.1158 17.3333 52.3809 17.3333Z" fill="white"/>
<path d="M74.6666 19.7708C71.9316 19.7708 69.7142 21.9762 69.7142 24.7619H62.2856V44.5714H69.7142C69.7142 47.2024 71.9316 49.4851 74.6666 49.4851C77.4015 49.4851 79.619 47.229 79.619 44.494V24.6845C79.619 21.9496 77.4015 19.7708 74.6666 19.7708Z" fill="white"/>
<path d="M5.33324 19.7708C2.59829 19.7708 0.380859 21.9496 0.380859 24.6845V44.494C0.380859 47.229 2.59829 49.4851 5.33324 49.4851C8.06819 49.4851 10.2856 47.2024 10.2856 44.5714H17.7142V24.7619H10.2856C10.2856 21.9762 8.06819 19.7708 5.33324 19.7708Z" fill="white"/>
</svg>
